<svg xmlns="http://www.w3.org/2000/svg" width="64.658" height="10.843" viewBox="0 0 64.658 10.843">
  <g id="Group_20925" data-name="Group 20925" transform="translate(0.75 0.75)">
    <path id="Icon_feather-star" data-name="Icon feather-star" d="M7.912,3,9.43,6.075l3.394.5L10.368,8.964l.58,3.38-3.036-1.6-3.036,1.6.58-3.38L3,6.571l3.394-.5Z" transform="translate(-3 -3)" fill="#ffce00" stroke="#ffce00" stroke-linecap="round" stroke-linejoin="round" stroke-width="1.5"/>
    <path id="Icon_feather-star-2" data-name="Icon feather-star" d="M7.912,3,9.43,6.075l3.394.5L10.368,8.964l.58,3.38-3.036-1.6-3.036,1.6.58-3.38L3,6.571l3.394-.5Z" transform="translate(10.333 -3)" fill="#ffce00" stroke="#ffce00" stroke-linecap="round" stroke-linejoin="round" stroke-width="1.5"/>
    <path id="Icon_feather-star-3" data-name="Icon feather-star" d="M7.912,3,9.43,6.075l3.394.5L10.368,8.964l.58,3.38-3.036-1.6-3.036,1.6.58-3.38L3,6.571l3.394-.5Z" transform="translate(23.667 -3)" fill="#ffce00" stroke="#ffce00" stroke-linecap="round" stroke-linejoin="round" stroke-width="1.5"/>
    <path id="Icon_feather-star-4" data-name="Icon feather-star" d="M7.912,3,9.43,6.075l3.394.5L10.368,8.964l.58,3.38-3.036-1.6-3.036,1.6.58-3.38L3,6.571l3.394-.5Z" transform="translate(37 -3)" fill="#ffce00" stroke="#ffce00" stroke-linecap="round" stroke-linejoin="round" stroke-width="1.5"/>
    <path id="Icon_feather-star-5" data-name="Icon feather-star" d="M4.877,13.65l.58-3.38L3,7.878l3.394-.5Z" transform="translate(50.334 -4.307)" fill="#ffce00" stroke="#ffce00" stroke-linecap="round" stroke-linejoin="round" stroke-width="1.5"/>
    <path id="Icon_feather-star-6" data-name="Icon feather-star" d="M7.912,3,9.43,6.075l3.394.5L10.368,8.964l.58,3.38-3.036-1.6-3.036,1.6.58-3.38L3,6.571l3.394-.5Z" transform="translate(50.334 -3)" fill="none" stroke="#ffce00" stroke-linecap="round" stroke-linejoin="round" stroke-width="1.5"/>
  </g>
</svg>
